
<svg xmlns="http://www.w3.org/2000/svg" xmlns:xlink="http://www.w3.org/1999/xlink" width="200%" height="200%">
  <circle r="50"/>
  <rect stroke="red" stroke-width="2" width="30" height="20" x="200" y="100" fill="#763442" />
  <line x1="0" y1="100" x2="300" y2="50" stroke="red" />
  <line x1="400" y1="0" x2="500" y2="580" stroke-width="30" stroke="papayawhip" stroke-linecap="round" />
  <line x1="400" y1="0" x2="500" y2="580" stroke-width="10" stroke="rgb(75%, 60%, 90%)" stroke-linecap="round" stroke-dasharray="1 20" />
  <line x1="200" y1="300" x2="600" y2="20" stroke="#c329aa" stroke-width="4" stroke-linecap="round" stroke-dasharray="3 2 10 2 7 2" />
  <rect x="200" y="300" width="50" height="90" stroke-width="2" stroke="#f239ee" fill="none" />
  <rect x="200" y="300" width="50" height="90" stroke-width="2" stroke="orange" fill="none" stroke-dasharray="2 1" />
  <circle cx="600" cy="20" r="100" fill="yellow" stroke="#ee4efe" stroke-width="5" />
  <ellipse cx="250" cy="390" rx="120" ry="20" fill="none" stroke="red" stroke-width="48" stroke-dasharray="1 1" />
  <path d="M 100,50 200,150 100,100" fill="none" stroke="black"/>
  <path d="M 300,150 400,250 200,200 z" fill="none" stroke="black"/>

  <!-- 坐标系 500,200 1000,600 -->
  <path id="copath" d="M 500,200 L 510,200 510,600 520,600 520,200 530,200 530,600 540,600 540,200 550,200 550,600 560,600 560,200 570,200 570,600, 580,600 580,200 590,200 590,600 600,600 600,200 610,200" stroke="rgb(200,200,255)" stroke-width="1" stroke-dasharray="2 2" fill="none" />
  <rect x="500" y="200" width="500" height="400" fill="none" stroke="blue" stroke-width="2" />

  <path d="M 600,300 L 650,550 900,210" stroke-width="2" stroke="red" fill="none" />
  <path d="M 600,300 Q 650,550 900,210" stroke-width="1" stroke="orange" fill="none" />
  <path d="M 600,300 L 650,550 900,510 650,550 900,210" stroke-width="2" stroke="red" fill="none" />
  <path d="M 600,300 Q 650,550 900,510 650,550 900,210" stroke-width="1" stroke="orange" fill="none" />
  <path d="M 600,300 Q 650,550 900,510 650,550 900,210" stroke-width="1" stroke="orange" fill="none" />
  <path d="M 600,300 C 650,580 720,240 900,210 " stroke-width="1" stroke="orange" fill="none" />

  <path d="M 20,600 L 320,600" fill='none' stroke-width="1" stroke="black" stroke-dasharray="2 2" />
  <path d="M 30,400 L 30,800" fill='none' stroke-width="1" stroke="black" stroke-dasharray="2 2" />
  <path d="M 310,400 L 310,800" fill='none' stroke-width="1" stroke="black" stroke-dasharray="2 2" />
  <path d="M 30,600 C 30,414 310,414 310,600" fill="none" stroke-width="2" stroke="red" />
  <path d="M 30,600 A 140,200 0 0,1 310,600" fill="none" stroke-width="2" stroke="blue" />
  <path d="M 30,600 A 140,140 0 0,1 310,600" fill="none" stroke-width="2" stroke="green" stroke-dasharray="4 4" />
  <image xlink:href="../img/title.png" x="400" y="400" width="600" height="200" />
  <text x="700" y="50" font-size="40" fill="papayawhip" stroke="red" stroke-width="1"><tspan fill="blue">doge doge u r a doge.</tspan> <tspan stroke-dasharray="4 4">why r u so diao？</tspan> <tspan rotate="15">呵</tspan><tspan rotate="30">呵</tspan>，<tspan rotate="45">睡</tspan><tspan rotate="60">觉</tspan>，<tspan rotate="75">去</tspan><tspan rotate="90">洗</tspan><tspan rotate="105">澡</tspan>。</text>

  <defs>
    <path id="curve" d="M 800,300 C 880,270 950,200 1000,300 C 1050,400 1120,330 1200,300" stroke="green" stroke-width="20" fill="none" />
  </defs>
  <text id="T" style="font-size:16">
    <textPath xlink:href="#curve">Hello, here is some text lying along a bezier curve.</textPath>
  </text>

  <circle cx="600" cy="20" r="100" fill="yellow" stroke="#ee4efe" stroke-width="5" opacity="0.5" transform="translate(-600,-20),scale(2)" />
  <circle cx="600" cy="20" r="100" fill="red" stroke="#ee4efe" stroke-width="5" opacity="0.4" transform="scale(2),translate(-600,-20)" />

  <g fill="black">
    <g id="G">
      <rect x="100" y="100" width="100" height="20" fill="inherit" />
      <rect x="100" y="160" width="100" height="20" fill="inherit" />
      <ellipse cx="150" cy="140" rx="30" ry="100" fill="#777" />
      <rect x="100" y="130" width="100" height="20" fill="inherit" />
    </g>
  </g>

  <use xlink:href="#G" transform="translate(120,0)" fill="#bbb" />
  <use xlink:href="#G" transform="translate(220,0)" fill="#bbb" />

  <!-- github icon -->
  <image xlink:href="https://github.com/fluidicon.png" x="100" y="800" width="512" height="512" />
  <defs>
    <ellipse id="cat_dots" cx="100" cy="800" fill="#27292c" rx="5" ry="3.5" />
  </defs>

  <circle cx="916" cy="1056" r="247" fill="#f4f3f3" stroke="#d5d5d5" stroke-width="0.5" />
  <path fill="#27292c" d="M 847,1262 A 218,218 0 1,1 984,1262 Q 970,1262 970,1254 L 970,1188 Q 970,1166 955,1151 C 1046,1142 1052,1084 1055,1056 C 1055,1025 1055,1014 1032,985 C 1038,968 1042,956 1030,928 C 996,929 991,940 970,950 A 115,56.5 0 0,0 861,950 C 841,940 836,929 802,928 C 790,956 794,968 798,985 C 776,1014 776,1025 776,1056 C 780,1084 786,1142 877,1151 Q 862,1166 861,1180 C 832,1193 809,1182 798,1162 C 782,1138 763,1137 755,1142 C 751,1145 759,1149 765,1154 C 798,1182 778,1194 818,1211 C 828,1214 841,1214 861,1209 L 861,1254 Q 861,1262 847,1262" />
  <use xlink:href="#cat_dots" transform="translate(755,391),rotate(-15 100,800)" />
  <use xlink:href="#cat_dots" transform="translate(738,393)" />
  <use xlink:href="#cat_dots" transform="translate(721,390),rotate(15 100,800)" />
  <use xlink:href="#cat_dots" transform="translate(705,381),rotate(40 100,800)" />
  <use xlink:href="#cat_dots" transform="translate(705,449),scale(0.9),rotate(60 100,800)" />
  <use xlink:href="#cat_dots" transform="translate(706,517),scale(0.8),rotate(50 100,800)" />
  <use xlink:href="#cat_dots" transform="translate(717,669),scale(0.6),rotate(30 100,800)" />

  <defs>
    <clipPath id="svgTextPath">
      <text x="0" y="0" textLength="800px" lengthAdjust="spacing" font-family="Vollkorn" font-size="230px" font-weight="700" font-style="italic"> Blossom </text>
    </clipPath>
  </defs>

  <image xlink:href="../img/title.png" x="800" y="400" width="600" height="200" clip-path="url(#svgTextPath)" />

</svg>

