<svg xmlns="http://www.w3.org/2000/svg" xmlns:xlink='http://www.w3.org/1999/xlink' xml:space="preserve" width="200%" height="200%">
  <circle r="50"/>
  <rect stroke="red" stroke-width="2" width="30" height="20" x="200" y="100" fill="#763442" />
  <line x1="0" y1="100" x2="300" y2="50" stroke="red" />
  <line x1="400" y1="0" x2="500" y2="580" stroke-width="30" stroke="papayawhip" stroke-linecap="round" />
  <line x1="400" y1="0" x2="500" y2="580" stroke-width="10" stroke="rgb(75%, 60%, 90%)" stroke-linecap="round" stroke-dasharray="1 20" />
  <line x1="200" y1="300" x2="600" y2="20" stroke="#c329aa" stroke-width="4" stroke-linecap="round" stroke-dasharray="3 2 10 2 7 2" />
  <rect x="200" y="300" width="50" height="90" stroke-width="2" stroke="#f239ee" fill="none" />
  <rect x="200" y="300" width="50" height="90" stroke-width="2" stroke="orange" fill="none" stroke-dasharray="2 1" />
  <circle cx="600" cy="20" r="100" fill="yellow" stroke="#ee4efe" stroke-width="5" />
  <ellipse cx="250" cy="390" rx="120" ry="20" fill="none" stroke="red" stroke-width="48" stroke-dasharray="1 1" />
  <path d="M 100,50 200,150 100,100" fill="none" stroke="black"/>
  <path d="M 300,150 400,250 200,200 z" fill="none" stroke="black"/>

  <!-- 坐标系 500,200 1000,600 -->
  <path id="copath" d="M 500,200 L 510,200 510,600 520,600 520,200 530,200 530,600 540,600 540,200 550,200 550,600 560,600 560,200 570,200 570,600, 580,600 580,200 590,200 590,600 600,600 600,200 610,200" stroke="rgb(200,200,255)" stroke-width="1" stroke-dasharray="2 2" fill="none" />
  <rect x="500" y="200" width="500" height="400" fill="none" stroke="blue" stroke-width="2" />

  <path d="M 600,300 L 650,550 900,210" stroke-width="2" stroke="red" fill="none" />
  <path d="M 600,300 Q 650,550 900,210" stroke-width="1" stroke="orange" fill="none" />
  <path d="M 600,300 L 650,550 900,510 650,550 900,210" stroke-width="2" stroke="red" fill="none" />
  <path d="M 600,300 Q 650,550 900,510 650,550 900,210" stroke-width="1" stroke="orange" fill="none" />
  <path d="M 600,300 Q 650,550 900,510 650,550 900,210" stroke-width="1" stroke="orange" fill="none" />
  <path d="M 600,300 C 650,580 720,240 900,210 " stroke-width="1" stroke="orange" fill="none" />

  <path d="M 20,600 L 320,600" fill='none' stroke-width="1" stroke="black" stroke-dasharray="2 2" />
  <path d="M 30,400 L 30,800" fill='none' stroke-width="1" stroke="black" stroke-dasharray="2 2" />
  <path d="M 310,400 L 310,800" fill='none' stroke-width="1" stroke="black" stroke-dasharray="2 2" />
  <path d="M 30,600 C 30,414 310,414 310,600" fill="none" stroke-width="2" stroke="red" />
  <path d="M 30,600 A 140,200 0 0,1 310,600" fill="none" stroke-width="2" stroke="blue" />
  <path d="M 30,600 A 140,140 0 0,1 310,600" fill="none" stroke-width="2" stroke="green" stroke-dasharray="4 4" />
  <image xlink:href="../img/title.png" x="400" y="400" width="600" height="200" />
  <text x="700" y="50" font-size="40" fill="papayawhip" stroke="red" stroke-width="1"><tspan fill="blue">doge doge u r a doge.</tspan> <tspan stroke-dasharray="4 4">why r u so diao？</tspan> <tspan rotate="15">呵</tspan><tspan rotate="30">呵</tspan>，<tspan rotate="45">睡</tspan><tspan rotate="60">觉</tspan>，<tspan rotate="75">去</tspan><tspan rotate="90">洗</tspan><tspan rotate="105">澡</tspan>。</text>

  <defs>
    <path id="demo1" d="M 800,300 C 880,270 950,200 1000,300 C 1050,400 1120,330 1200,300" stroke="black" stroke-width="10" fill="none" />
  </defs>
  <text id="T" style="font-size:16">
    <textPath xlink:href="demo1">why r u so diao? doge doge u r a doge. 呵呵睡觉去洗澡。</textPath>
  </text>




</svg>

