
<svg xmlns="http://www.w3.org/2000/svg" xmlns:xlink="http://www.w3.org/1999/xlink" width="100%" height="100%" viewBox="0 0 2000 2000" >
  <!-- 1234 -->

  <!-- <circle r="50" />
  <rect stroke="red" stroke-width="2" width="30" height="20" x="200" y="100" fill="#763442" />
  <line x1="0" y1="100" x2="300" y2="50" stroke="red" />
  <line x1="400" y1="0" x2="500" y2="580" stroke-width="30" stroke="papayawhip" stroke-linecap="round" />
  <line x1="400" y1="0" x2="500" y2="580" stroke-width="10" stroke="rgb(75%, 60%, 90%)" stroke-linecap="round" stroke-dasharray="1 20" />
  <line x1="200" y1="300" x2="600" y2="20" stroke="#c329aa" stroke-width="4" stroke-linecap="round" stroke-dasharray="3 2 10 2 7 2" />
  <rect x="200" y="300" width="50" height="90" stroke-width="2" stroke="#f239ee" fill="none" />
  <rect x="200" y="300" width="50" height="90" stroke-width="2" stroke="orange" fill="none" stroke-dasharray="2 1" />
  <circle cx="600" cy="20" r="100" fill="yellow" stroke="#ee4efe" stroke-width="5" />
  <ellipse cx="250" cy="390" rx="120" ry="20" fill="none" stroke="red" stroke-width="8" stroke-dasharray="1 1" />
  <path d="M 100,50 200,150 100,100" fill="none" stroke="black"/>
  <path d="M 300,150 400,250 200,200 z" fill="none" stroke="black"/>

  <path id="copath" d="M 500,200 L 510,200 510,600 520,600 520,200 530,200 530,600 540,600 540,200 550,200 550,600 560,600 560,200 570,200 570,600, 580,600 580,200 590,200 590,600 600,600 600,200 610,200" stroke="rgb(200,200,255)" stroke-width="1" stroke-dasharray="2 2" fill="none" />
  <rect x="500" y="200" width="500" height="400" fill="none" stroke="blue" stroke-width="2" />

  <path d="M 600,300 L 650,550 900,210" stroke-width="2" stroke="red" fill="none" />
  <path d="M 600,300 Q 650,550 900,210" stroke-width="1" stroke="orange" fill="none" />
  <path d="M 600,300 L 650,550 900,510 650,550 900,210" stroke-width="2" stroke="red" fill="none" />
  <path d="M 600,300 Q 650,550 900,510 650,550 900,210" stroke-width="1" stroke="orange" fill="none" />
  <path d="M 600,300 Q 650,550 900,510 650,550 900,210" stroke-width="1" stroke="orange" fill="none" />
  <path d="M 600,300 C 650,580 720,240 900,210 " stroke-width="1" stroke="orange" fill="none" />

  <path d="M 20,600 L 320,600" fill='none' stroke-width="1" stroke="black" stroke-dasharray="2 2" />
  <path d="M 30,400 L 30,800" fill='none' stroke-width="1" stroke="black" stroke-dasharray="2 2" />
  <path d="M 310,400 L 310,800" fill='none' stroke-width="1" stroke="black" stroke-dasharray="2 2" />
  <path d="M 30,600 C 30,414 310,414 310,600" fill="none" stroke-width="2" stroke="red" />
  <path d="M 30,600 A 140,200 0 0,1 310,600" fill="none" stroke-width="2" stroke="blue" />
  <path d="M 30,600 A 140,140 0 0,1 310,600" fill="none" stroke-width="2" stroke="green" stroke-dasharray="4 4" />
  <image xlink:href="../img/title.png" x="400" y="400" width="600" height="200" />
  <text x="700" y="50" font-size="40" fill="papayawhip" stroke="red" stroke-width="1"><tspan fill="blue">doge doge u r a doge.</tspan> <tspan stroke-dasharray="4 4">why r u so diao？</tspan> <tspan rotate="15">呵</tspan><tspan rotate="30">呵</tspan>，<tspan rotate="45">睡</tspan><tspan rotate="60">觉</tspan>，<tspan rotate="75">去</tspan><tspan rotate="90">洗</tspan><tspan rotate="105">澡</tspan>。</text>

  <defs>
    <path id="curve" d="M 0,0 C 80,-30 150,-100 200,0 C 250,100 320,30 400,0" stroke="green" stroke-width="20" fill="none" />
  </defs>
  <text id="T" style="font-size:16" transform="translate(800,300)">
    <textPath xlink:href="#curve">Hello, here is some text ying along a bezier curve.</textPath>
  </text>

  <circle cx="600" cy="20" r="100" fill="yellow" stroke="#ee4efe" stroke-width="5" opacity="0.5" transform="translate(-600,-20),scale(2)" />
  <circle cx="600" cy="20" r="100" fill="red" stroke="#ee4efe" stroke-width="5" opacity="0.4" transform="scale(2),translate(-600,-20)" />

  <g fill="black">
    <g id="G">
      <rect x="100" y="100" width="100" height="20" fill="inherit" />
      <rect x="100" y="160" width="100" height="20" fill="inherit" />
      <ellipse cx="150" cy="140" rx="30" ry="100" fill="#777" />
      <rect x="100" y="130" width="100" height="20" fill="inherit" />
    </g>
  </g>

  <use xlink:href="#G" transform="translate(120,0)" fill="#bbb" />
  <use xlink:href="#G" transform="translate(220,0)" fill="#bbb" />

  <image xlink:href="https://github.com/fluidicon.png" x="100" y="800" width="512" height="512" />
  <defs>
    <ellipse id="cat_dots" cx="100" cy="800" fill="#27292c" rx="5" ry="3.5" />
  </defs>

  <circle cx="916" cy="1056" r="247" fill="#f4f3f3" stroke="#d5d5d5" stroke-width="0.5" />
  <path fill="#27292c" d="M 847,1262 A 218,218 0 1,1 984,1262 Q 970,1262 970,1254 L 970,1188 Q 970,1166 955,1151 C 1046,1142 1052,1084 1055,1056 C 1055,1025 1055,1014 1032,985 C 1038,968 1042,956 1030,928 C 996,929 991,940 970,950 A 115,56.5 0 0,0 861,950 C 841,940 836,929 802,928 C 790,956 794,968 798,985 C 776,1014 776,1025 776,1056 C 780,1084 786,1142 877,1151 Q 862,1166 861,1180 C 832,1193 809,1182 798,1162 C 782,1138 763,1137 755,1142 C 751,1145 759,1149 765,1154 C 798,1182 778,1194 818,1211 C 828,1214 841,1214 861,1209 L 861,1254 Q 861,1262 847,1262" />
  <use xlink:href="#cat_dots" transform="translate(755,391),rotate(-15 100,800)" />
  <use xlink:href="#cat_dots" transform="translate(738,393)" />
  <use xlink:href="#cat_dots" transform="translate(721,390),rotate(15 100,800)" />
  <use xlink:href="#cat_dots" transform="translate(705,381),rotate(40 100,800)" />
  <use xlink:href="#cat_dots" transform="translate(705,449),scale(0.9),rotate(60 100,800)" />
  <use xlink:href="#cat_dots" transform="translate(706,517),scale(0.8),rotate(50 100,800)" />
  <use xlink:href="#cat_dots" transform="translate(717,669),scale(0.6),rotate(30 100,800)" />

  <defs>
    <clipPath id="svgTextPath">
      <text x="0" y="0" textLength="800" lengthAdjust="spacing" font-family="Vollkorn" font-size="23px" font-style="italic"> Blossom </text>
    </clipPath>
  </defs>

  <image xlink:href="../img/title.png" x="1000" y="400" width="600" height="200" clip-path="url(#svgTextPath)" />


  <clipPath id="CP">
    <ellipse cx="330" cy="80" rx="70" ry="25"/>
  </clipPath>

  <image xlink:href='../img/title.png' y="200" x="1300" width="35%" height="40%" 
  clip-path="url(#CP)"/>

  <linearGradient id="gradientl">
    <stop offset="0" stop-color="blue"/>
    <stop offset="1" stop-color="black" stop-opacity="0.2" />
  </linearGradient>
  <radialGradient id="gradientr" cx="1">
    <stop offset="0" stop-color="red"></stop>
    <stop offset="0.4" stop-color="yellow"></stop>
    <stop offset="1" stop-color="green"></stop>
  </radialGradient>

  <g id="ovals3" fill="#835" stroke-width=".7" stroke="#006">
    <image xlink:href="https://github.com/fluidicon.png" x="0" y="0" width="20" height="20" />
  </g>

  <circle cx="1500" cy="900" r="200" fill="url(#gradientr)" stroke-width="5" />
  <circle cx="1500" cy="900" r="200" fill="url(#gradientl)" stroke-width="5" />
  <defs>
    <pattern id="Oval" patternUnits="userSpaceOnUse" width="20" height="20" >
      <use xlink:href="#ovals3"/>
    </pattern>
  </defs>

  <ellipse fill="url(#Oval)" cx="1600" cy="400" rx="20%" ry="14%"/> -->

  <!-- <defs>
    <ellipse cx="100" cy="100" rx="100" ry="80" id="cpe" />
  </defs>

  <clipPath id="cp">
    <use xlink:href="#cpe" />
  </clipPath>

  <image xlink:href="../img/title.png" x="0" y="0" width="400" height="400" clip-path="url(#cp)" >
    <animate attributeName="width" begin="b.click" end="e.click" dur="4s" values="200;50;200" repeatCount="indefinite" />
  </image> -->
    
  <!-- <rect x="10" y="10" width="200" height="200" fill="red" >
    <animate attributeName="width" begin="b.click" end="e.click" dur="4s" values="200;50;200" repeatCount="indefinite" />
  </rect> -->

  <!-- <defs>
    <ellipse id="cat_dots" cx="100" cy="800" fill="#27292c" rx="5" ry="3.5" />
  </defs>

  <circle cx="916" cy="1056" r="247" fill="#f4f3f3" stroke="#d5d5d5" stroke-width="0.5" />
  <path stroke="red" stroke-width="4" stroke-dasharray="0 3000" fill="#f4f3f3" d="M 847,1262 A 218,218 0 1,1 984,1262 Q 970,1262 970,1254 L 970,1188 Q 970,1166 955,1151 C 1046,1142 1052,1084 1055,1056 C 1055,1025 1055,1014 1032,985 C 1038,968 1042,956 1030,928 C 996,929 991,940 970,950 A 115,56.5 0 0,0 861,950 C 841,940 836,929 802,928 C 790,956 794,968 798,985 C 776,1014 776,1025 776,1056 C 780,1084 786,1142 877,1151 Q 862,1166 861,1180 C 832,1193 809,1182 798,1162 C 782,1138 763,1137 755,1142 C 751,1145 759,1149 765,1154 C 798,1182 778,1194 818,1211 C 828,1214 841,1214 861,1209 L 861,1254 Q 861,1262 847,1262" >
    <animate attributeName="stroke-dasharray" begin="b.click" end="e.click" dur="10s" repeatCount="indefinite" values="0 3000; 3000 0; 0 3000" />
    
  </path>
  <use xlink:href="#cat_dots" transform="translate(755,391),rotate(-15 100,800)" />
  <use xlink:href="#cat_dots" transform="translate(738,393)" />
  <use xlink:href="#cat_dots" transform="translate(721,390),rotate(15 100,800)" />
  <use xlink:href="#cat_dots" transform="translate(705,381),rotate(40 100,800)" />
  <use xlink:href="#cat_dots" transform="translate(705,449),scale(0.9),rotate(60 100,800)" />
  <use xlink:href="#cat_dots" transform="translate(706,517),scale(0.8),rotate(50 100,800)" />
  <use xlink:href="#cat_dots" transform="translate(717,669),scale(0.6),rotate(30 100,800)" /> -->


  <!-- <path stroke-width="5" stroke="blue" stroke-dasharray="1 2000" d="M 0,100 L 1600,600" >
    <animate attributeName="stroke-dasharray" begin="b.click" end="e.click" dur="2s" values="1 2000; 2000 1; 1 2000" repeatCount="indefinite" />
    <animate attributeName="stroke" begin="b.click" end="e.click" dur="2s" values="blue; yellow; red; blue" repeatCount="indefinite" />
    <animate attributeName="stroke-width" begin="b.click" end="e.click" dur="2s" values="5; 9; 1; 15; 21; 5" repeatCount="indefinite" />
  </path> -->

  <!-- <rect x="5%" y="20%" width="10%" height="2%" fill="blue" >
    <animate attributeName="x" dur="4s" values="5%; 15%; 85%; 15%; 5%" repeatCount="3" fill="freeze" />
    <animate attributeName="y" dur="4s" values="20%; 50%; 20%" repeatCount="3" fill="freeze" />
  </rect> -->
  <!-- <circle cx="50%" cy="20" r="5%" fill="blue">
   <animate attributeName="cx" dur="2.9" values="5%;95%;5%" repeatCount="indefinite" />
   <animate attributeName="cy" dur="3.7" values="5%;95%;5%" repeatCount="indefinite" />
  </circle>
  <circle cx="50%" cy="20" r="5%" fill="blue">
   <animate attributeName="cx" dur="2" values="5%;95%;5%" repeatCount="indefinite" />
   <animate attributeName="cy" dur="1.3" values="5%;95%;5%" repeatCount="indefinite" />
  </circle>
  <circle cx="50%" cy="20" r="5%" fill="blue">
   <animate attributeName="cx" dur="1.3" values="5%;95%;5%" repeatCount="indefinite" />
   <animate attributeName="cy" dur="3" values="5%;95%;5%" repeatCount="indefinite" />
  </circle>
  <circle cx="50%" cy="20" r="5%" fill="blue">
   <animate attributeName="cx" dur="2.5" values="5%;95%;5%" repeatCount="indefinite" />
   <animate attributeName="cy" dur="1.1" values="5%;95%;5%" repeatCount="indefinite" />
  </circle>
  <circle cx="50%" cy="20" r="5%" fill="blue">
   <animate attributeName="cx" dur="4.3" values="5%;95%;5%" repeatCount="indefinite" />
   <animate attributeName="cy" dur="2.7" values="5%;95%;5%" repeatCount="indefinite" />
  </circle> -->
  <!-- <circle cx="50%" cy="20" r="5%" fill="blue">
   <animate attributeName="cx" dur="1.7" values="5%;95%;5%" repeatCount="indefinite" />
   <animate attributeName="cy" dur="3.1" values="5%;95%;5%" repeatCount="indefinite" keyTimes="0; .1; 1" calcMode="spline" keySplines="1 0 0 1; 0 0 1 1" />
  </circle>

  <circle cx="50%" cy="20" r="5%" fill="blue">
    <animate attributeName="cx" dur="3" values="5%; 95%;5%" 
       repeatCount="indefinite" />
    <animate attributeName="cy" dur="6s" values="5%; 95%;5%" keyTimes="0;0.5; 1"
       calcMode="spline" keySplines="1 0 0 1; 0 0 1 1" repeatCount="indefinite" />
  </circle> -->

  <!-- <circle cx="50%" cy="20" r="5%" fill="blue">
     <animate attributeName="cx" dur="3" values="5%;50%;95%;50%;5%"
        keyTimes="0;0.25;0.5;0.75; 1" calcMode="spline" 
        keySplines="0 0 1 1;0 .5 .5 1;0 0 1 1; 0 .5 .5 1"
        repeatCount="indefinite" 
     />
     <animate attributeName="cy" dur="3" values="50%;5%;50%;95%;50%" 
        keyTimes="0;0.25;0.5;0.75; 1" calcMode="spline"
        keySplines="0 .5 .5 1;0 0 1 1; 0 .5 .5 1 ;0 0 1 1"
        repeatCount="indefinite"
     />
  </circle> -->
  <!-- <path d="M 100 200 C 100 150 250 150 100 100 C 0 50 100 400 100 200" stroke="blue" stoke-width="3" fill="none" >
    <animate attributeName="d" dur="2s" repeatCount="indefinite" values="M 100 200 C 100 150 250 150 100 100 C 0 50 100 400 100 200; M 100 200 C 100 150 300 100 150 100 C 0 50 100 100 100 200; M 100 200 C 100 150 250 150 100 100 C 0 50 100 400 100 200" />
  </path> -->

  <!-- <path id="curve" stroke="black" fill="none" stroke-width="5" d="M 110,200 C 300,130 400,350 450,150 500,-50 -90,270 110,200" /> -->
  <!-- <path id="curve2" stroke="black" fill="none" stroke-width="5" d="M 110,200 C 300,130 400,350 450,150 500,-50 -90,270 110,200" transform="translate(100,100)" /> -->

  <!-- <ellipse cx="0" cy="0" rx="20" ry="14" fill="#aaa" stroke="#666" 
       stroke-width="2" opacity=".8" >
     <animateMotion dur="2s" rotate="auto" repeatCount="indefinite" keyTimes="0; 0.5; 1" calcMode="spline" keySplines="0 0 1 0;0 0 1 0">
        <mpath xlink:href="#curve"/>
     </animateMotion>
  </ellipse> -->

  <!-- <ellipse cx="7" cy="-5" rx="20" ry="14" fill="red" stroke="#666" 
       stroke-width="2" opacity=".1" >
     <animateMotion dur="2s" rotate="auto" repeatCount="indefinite" >
        <mpath xlink:href="#curve2"/>
     </animateMotion>
  </ellipse> -->

  <!-- <rect id="b" x="10" y="40" width="80" height="30" />
  <rect id="e" x="110" y="40" width="80" height="30" /> -->

  <!-- <ellipse cx="150" cy="75" rx="10" ry="40" fill="blue">
    <animate id="A" attributeName="rx" begin="click" end="A.begin+4" onbegin="alert('started')" onend="alert('stopped')" dur="4s" values="10;110;10" repeatCount="indefinite"/>
  </ellipse>
  <ellipse cx="150" cy="175" rx="10" ry="40" fill="blue" onactivate="alert('ellipse')" /> -->
  <!-- <script><![CDATA[
  function Here(){
    alert(document.getElementById("R").height.baseVal.value);
  }
  ]]>
  </script>
  <text x="170" y="150" font-size="24" fill="black">Click</text>
  <rect id="R" onclick="Here()" x="155" y="125" height="30" width="80" 
    stroke="black" stroke-width="2" fill="green" opacity=".5"/> -->
  <!-- <script><![CDATA[
  function Here(){
    R=document.getElementById("R");
    T=document.getElementById("T");
    alert(R.getAttributeNS(null,'x'));
  }
  ]]>
  </script>
  <text id="T" x="170" y="150" font-size="24" fill="black">Click</text>
  <rect id="R" onclick="Here()" x="155" y="125" height="30" width="80" stroke="black" stroke-width="2" fill="green" opacity=".5"/> -->
  


  <!-- <circle cx="60" cy="60" r="40" fill="white" stroke="black" stroke-width="3"/>
  <circle id="C" cx="60" cy="60" r="22" fill="darkgrey" opacity="0.7" stroke="lightgrey" stroke-width="8"/>

  <script><![CDATA[
    
    var C=document.getElementById("C");
    function moveIt(evt){
      C.setAttributeNS(null,"cx",evt.clientX)
      C.setAttributeNS(null,"cy",evt.clientY)
    }
  ]]></script> -->

  <!-- <script><![CDATA[
    function display(evt){
      alert(evt.target.nodeName)
    }
  ]]></script>
  <g>
    <rect x="30" y="40" width="180" height="30" fill="#ddd" stroke="black" onclick="display(evt)"/>
    <text x="50" y="63" font-size="18pt" fill="black" onclick="display(evt)">Display Msg</text>
  </g> -->
  <!-- 12345
  <g>
    <rect x="100" y="100" width="200" height="200" fill="red" />
  </g>
  <script><![CDATA[
    var root = document.documentElement,
      fr = root.firstChild;
    console.log(root.nodeName, root.nodeValue, fr.nodeName, fr.ocument.firstChild.firstChild.nextSibling.nextSibling.nextSibling);
    window.f = fr;
  ]]></script> -->
  <g id="G">
    <rect x="100" y="100" width="200" height="200" fill="red" />
    <rect x="100" y="300" width="200" height="200" fill="green" />
    <rect x="100" y="500" width="200" height="200" fill="yellow" />
  </g>
  <script><![CDATA[
    var root = document.getElementById('G');
    console.log(root.childNodes.length);
  ]]></script>

</svg>

